<?xml version="1.0" encoding="UTF-8"?>
<svg width="294px" height="75px" viewBox="0 0 294 75" version="1.1" xmlns="http://www.w3.org/2000/svg" xmlns:xlink="http://www.w3.org/1999/xlink">
    <!-- Generator: Sketch 43.2 (39069) - http://www.bohemiancoding.com/sketch -->
    <title>Slice 1</title>
    <desc>Created with Sketch.</desc>
    <defs></defs>
    <g id="Page-1" stroke="none" stroke-width="1" fill="none" fill-rule="evenodd">
        <path d="M33.408,57.872 C32.4693286,58.4266694 31.1680083,58.704 29.504,58.704 C28.095993,58.704 26.9760042,58.3093373 26.144,57.52 C25.3119958,56.7306627 24.896,55.440009 24.896,53.648 C23.4026592,55.440009 21.6640099,56.7306627 19.68,57.52 C17.6959901,58.3093373 15.5520115,58.704 13.248,58.704 C11.7546592,58.704 10.3360067,58.533335 8.992,58.192 C7.64799328,57.850665 6.48533824,57.317337 5.504,56.592 C4.52266176,55.866663 3.74400288,54.9173392 3.168,53.744 C2.59199712,52.5706608 2.304,51.1520083 2.304,49.488 C2.304,47.6106573 2.6239968,46.0746726 3.264,44.88 C3.9040032,43.6853274 4.74666144,42.7146704 5.792,41.968 C6.83733856,41.2213296 8.03199328,40.6560019 9.376,40.272 C10.7200067,39.8879981 12.095993,39.5680013 13.504,39.312 C14.9973408,39.0133318 16.4159933,38.7893341 17.76,38.64 C19.1040067,38.4906659 20.2879949,38.2773347 21.312,38 C22.3360051,37.7226653 23.1466637,37.317336 23.744,36.784 C24.3413363,36.250664 24.64,35.4720051 24.64,34.448 C24.64,33.2533274 24.4160022,32.293337 23.968,31.568 C23.5199978,30.842663 22.9440035,30.2880019 22.24,29.904 C21.5359965,29.5199981 20.746671,29.2640006 19.872,29.136 C18.997329,29.0079994 18.1333376,28.944 17.28,28.944 C14.9759885,28.944 13.0560077,29.381329 11.52,30.256 C9.98399232,31.130671 9.15200064,32.7839878 9.024,35.216 L3.584,35.216 C3.66933376,33.1679898 4.09599616,31.440007 4.864,30.032 C5.63200384,28.623993 6.6559936,27.482671 7.936,26.608 C9.2160064,25.733329 10.6773251,25.1040019 12.32,24.72 C13.9626749,24.3359981 15.7226573,24.144 17.6,24.144 C19.0933408,24.144 20.5759926,24.2506656 22.048,24.464 C23.5200074,24.6773344 24.8533274,25.1146634 26.048,25.776 C27.2426726,26.4373366 28.202663,27.3653274 28.928,28.56 C29.653337,29.7546726 30.016,31.3119904 30.016,33.232 L30.016,50.256 C30.016,51.5360064 30.0906659,52.4746637 30.24,53.072 C30.3893341,53.6693363 30.8906624,53.968 31.744,53.968 C32.2133357,53.968 32.7679968,53.8613344 33.408,53.648 L33.408,57.872 Z M24.576,40.912 C23.8933299,41.4240026 22.9973389,41.7973322 21.888,42.032 C20.7786611,42.2666678 19.6160061,42.4586659 18.4,42.608 C17.1839939,42.7573341 15.9573395,42.927999 14.72,43.12 C13.4826605,43.312001 12.3733382,43.6213312 11.392,44.048 C10.4106618,44.4746688 9.61066976,45.0826627 8.992,45.872 C8.37333024,46.6613373 8.064,47.7386598 8.064,49.104 C8.064,50.0000045 8.24533152,50.7573302 8.608,51.376 C8.97066848,51.9946698 9.43999712,52.4959981 10.016,52.88 C10.5920029,53.2640019 11.2639962,53.5413325 12.032,53.712 C12.8000038,53.8826675 13.6106624,53.968 14.464,53.968 C16.256009,53.968 17.7919936,53.7226691 19.072,53.232 C20.3520064,52.7413309 21.3973293,52.1226704 22.208,51.376 C23.0186707,50.6293296 23.6159981,49.818671 24,48.944 C24.3840019,48.069329 24.576,47.2480038 24.576,46.48 L24.576,40.912 Z M40.704,29.712 L40.704,58 L46.144,58 L46.144,29.712 L52.544,29.712 L52.544,24.912 L46.144,24.912 L46.144,20.304 C46.144,18.8533261 46.506663,17.8720026 47.232,17.36 C47.957337,16.8479974 48.9813267,16.592 50.304,16.592 C50.7733357,16.592 51.2853306,16.6239997 51.84,16.688 C52.3946694,16.7520003 52.9066643,16.8693325 53.376,17.04 L53.376,12.304 C52.8639974,12.1333325 52.2773366,12.0053338 51.616,11.92 C50.9546634,11.8346662 50.3680026,11.792 49.856,11.792 C46.8693184,11.792 44.5973411,12.4853264 43.04,13.872 C41.4826589,15.2586736 40.704,17.2959866 40.704,19.984 L40.704,24.912 L35.136,24.912 L35.136,29.712 L40.704,29.712 Z M79.872,35.536 L85.504,35.536 C85.2906656,33.5733235 84.7786707,31.8773405 83.968,30.448 C83.1573293,29.0186595 82.122673,27.8346714 80.864,26.896 C79.605327,25.9573286 78.1546749,25.2640022 76.512,24.816 C74.8693251,24.3679978 73.1093427,24.144 71.232,24.144 C68.6293203,24.144 66.3466765,24.6026621 64.384,25.52 C62.4213235,26.4373379 60.7893398,27.695992 59.488,29.296 C58.1866602,30.896008 57.2160032,32.7733226 56.576,34.928 C55.9359968,37.0826774 55.616,39.397321 55.616,41.872 C55.616,44.346679 55.9466634,46.6186563 56.608,48.688 C57.2693366,50.7573437 58.2506602,52.5386592 59.552,54.032 C60.8533398,55.5253408 62.474657,56.6773293 64.416,57.488 C66.357343,58.2986707 68.5866541,58.704 71.104,58.704 C75.3280211,58.704 78.6666544,57.5946778 81.12,55.376 C83.5733456,53.1573222 85.0986637,50.0000205 85.696,45.904 L80.128,45.904 C79.786665,48.4640128 78.8586742,50.447993 77.344,51.856 C75.8293258,53.264007 73.7280134,53.968 71.04,53.968 C69.3333248,53.968 67.8613395,53.6266701 66.624,52.944 C65.3866605,52.2613299 64.3840038,51.3546723 63.616,50.224 C62.8479962,49.0933277 62.2826685,47.8026739 61.92,46.352 C61.5573315,44.9013261 61.376,43.4080077 61.376,41.872 C61.376,40.2079917 61.546665,38.5973411 61.888,37.04 C62.229335,35.4826589 62.7946627,34.1066726 63.584,32.912 C64.3733373,31.7173274 65.4293267,30.757337 66.752,30.032 C68.0746733,29.306663 69.7173235,28.944 71.68,28.944 C73.9840115,28.944 75.8186598,29.5199942 77.184,30.672 C78.5493402,31.8240058 79.4453312,33.4453229 79.872,35.536 Z M121.088,57.872 C120.149329,58.4266694 118.848008,58.704 117.184,58.704 C115.775993,58.704 114.656004,58.3093373 113.824,57.52 C112.991996,56.7306627 112.576,55.440009 112.576,53.648 C111.082659,55.440009 109.34401,56.7306627 107.36,57.52 C105.37599,58.3093373 103.232012,58.704 100.928,58.704 C99.4346592,58.704 98.0160067,58.533335 96.672,58.192 C95.3279933,57.850665 94.1653382,57.317337 93.184,56.592 C92.2026618,55.866663 91.4240029,54.9173392 90.848,53.744 C90.2719971,52.5706608 89.984,51.1520083 89.984,49.488 C89.984,47.6106573 90.3039968,46.0746726 90.944,44.88 C91.5840032,43.6853274 92.4266614,42.7146704 93.472,41.968 C94.5173386,41.2213296 95.7119933,40.6560019 97.056,40.272 C98.4000067,39.8879981 99.775993,39.5680013 101.184,39.312 C102.677341,39.0133318 104.095993,38.7893341 105.44,38.64 C106.784007,38.4906659 107.967995,38.2773347 108.992,38 C110.016005,37.7226653 110.826664,37.317336 111.424,36.784 C112.021336,36.250664 112.32,35.4720051 112.32,34.448 C112.32,33.2533274 112.096002,32.293337 111.648,31.568 C111.199998,30.842663 110.624004,30.2880019 109.92,29.904 C109.215996,29.5199981 108.426671,29.2640006 107.552,29.136 C106.677329,29.0079994 105.813338,28.944 104.96,28.944 C102.655988,28.944 100.736008,29.381329 99.2,30.256 C97.6639923,31.130671 96.8320006,32.7839878 96.704,35.216 L91.264,35.216 C91.3493338,33.1679898 91.7759962,31.440007 92.544,30.032 C93.3120038,28.623993 94.3359936,27.482671 95.616,26.608 C96.8960064,25.733329 98.3573251,25.1040019 100,24.72 C101.642675,24.3359981 103.402657,24.144 105.28,24.144 C106.773341,24.144 108.255993,24.2506656 109.728,24.464 C111.200007,24.6773344 112.533327,25.1146634 113.728,25.776 C114.922673,26.4373366 115.882663,27.3653274 116.608,28.56 C117.333337,29.7546726 117.696,31.3119904 117.696,33.232 L117.696,50.256 C117.696,51.5360064 117.770666,52.4746637 117.92,53.072 C118.069334,53.6693363 118.570662,53.968 119.424,53.968 C119.893336,53.968 120.447997,53.8613344 121.088,53.648 L121.088,57.872 Z M112.256,40.912 C111.57333,41.4240026 110.677339,41.7973322 109.568,42.032 C108.458661,42.2666678 107.296006,42.4586659 106.08,42.608 C104.863994,42.7573341 103.63734,42.927999 102.4,43.12 C101.16266,43.312001 100.053338,43.6213312 99.072,44.048 C98.0906618,44.4746688 97.2906698,45.0826627 96.672,45.872 C96.0533302,46.6613373 95.744,47.7386598 95.744,49.104 C95.744,50.0000045 95.9253315,50.7573302 96.288,51.376 C96.6506685,51.9946698 97.1199971,52.4959981 97.696,52.88 C98.2720029,53.2640019 98.9439962,53.5413325 99.712,53.712 C100.480004,53.8826675 101.290662,53.968 102.144,53.968 C103.936009,53.968 105.471994,53.7226691 106.752,53.232 C108.032006,52.7413309 109.077329,52.1226704 109.888,51.376 C110.698671,50.6293296 111.295998,49.818671 111.68,48.944 C112.064002,48.069329 112.256,47.2480038 112.256,46.48 L112.256,40.912 Z M126.336,24.912 L131.776,24.912 L131.776,29.392 L131.904,29.392 C132.800004,27.5573242 134.20799,26.2240042 136.128,25.392 C138.04801,24.5599958 140.159988,24.144 142.464,24.144 C145.024013,24.144 147.253324,24.6133286 149.152,25.552 C151.050676,26.4906714 152.629327,27.759992 153.888,29.36 C155.146673,30.960008 156.095997,32.8053229 156.736,34.896 C157.376003,36.9866771 157.696,39.2053216 157.696,41.552 C157.696,43.8986784 157.38667,46.1173229 156.768,48.208 C156.14933,50.2986771 155.210673,52.1226589 153.952,53.68 C152.693327,55.2373411 151.114676,56.4639955 149.216,57.36 C147.317324,58.2560045 145.109346,58.704 142.592,58.704 C141.781329,58.704 140.874672,58.6186675 139.872,58.448 C138.869328,58.2773325 137.877338,58.0000019 136.896,57.616 C135.914662,57.2319981 134.986671,56.7093366 134.112,56.048 C133.237329,55.3866634 132.501336,54.5653382 131.904,53.584 L131.776,53.584 L131.776,70.608 L126.336,70.608 L126.336,24.912 Z M151.936,41.168 C151.936,39.6319923 151.733335,38.1280074 151.328,36.656 C150.922665,35.1839926 150.304004,33.8720058 149.472,32.72 C148.639996,31.5679942 147.57334,30.6506701 146.272,29.968 C144.97066,29.2853299 143.445342,28.944 141.696,28.944 C139.861324,28.944 138.304006,29.306663 137.024,30.032 C135.743994,30.757337 134.698671,31.7066608 133.888,32.88 C133.077329,34.0533392 132.490668,35.3866592 132.128,36.88 C131.765332,38.3733408 131.584,39.8879923 131.584,41.424 C131.584,43.0453414 131.775998,44.6133258 132.16,46.128 C132.544002,47.6426742 133.151996,48.9759942 133.984,50.128 C134.816004,51.2800058 135.893327,52.2079965 137.216,52.912 C138.538673,53.6160035 140.138657,53.968 142.016,53.968 C143.893343,53.968 145.461327,53.605337 146.72,52.88 C147.978673,52.154663 148.991996,51.1946726 149.76,50 C150.528004,48.8053274 151.082665,47.4400077 151.424,45.904 C151.765335,44.3679923 151.936,42.7893414 151.936,41.168 Z M187.072,38.288 C186.986666,37.0079936 186.698669,35.7920058 186.208,34.64 C185.717331,33.4879942 185.056004,32.4960042 184.224,31.664 C183.391996,30.8319958 182.410672,30.1706691 181.28,29.68 C180.149328,29.1893309 178.90134,28.944 177.536,28.944 C176.127993,28.944 174.858672,29.1893309 173.728,29.68 C172.597328,30.1706691 171.626671,30.8426624 170.816,31.696 C170.005329,32.5493376 169.365336,33.5413277 168.896,34.672 C168.426664,35.8026723 168.149334,37.0079936 168.064,38.288 L187.072,38.288 Z M192.32,47.504 C191.594663,51.2160186 189.994679,54.0106573 187.52,55.888 C185.045321,57.7653427 181.930685,58.704 178.176,58.704 C175.530653,58.704 173.237343,58.2773376 171.296,57.424 C169.354657,56.5706624 167.722673,55.3760077 166.4,53.84 C165.077327,52.3039923 164.085337,50.469344 163.424,48.336 C162.762663,46.202656 162.389334,43.8773459 162.304,41.36 C162.304,38.8426541 162.687996,36.5386771 163.456,34.448 C164.224004,32.3573229 165.301326,30.5440077 166.688,29.008 C168.074674,27.4719923 169.717324,26.2773376 171.616,25.424 C173.514676,24.5706624 175.594655,24.144 177.856,24.144 C180.800015,24.144 183.242657,24.7519939 185.184,25.968 C187.125343,27.1840061 188.682661,28.7306573 189.856,30.608 C191.029339,32.4853427 191.839998,34.5333222 192.288,36.752 C192.736002,38.9706778 192.917334,41.0826566 192.832,43.088 L168.064,43.088 C168.021333,44.5386739 168.191998,45.9146602 168.576,47.216 C168.960002,48.5173398 169.578662,49.6693283 170.432,50.672 C171.285338,51.6746717 172.373327,52.4746637 173.696,53.072 C175.018673,53.6693363 176.575991,53.968 178.368,53.968 C180.672012,53.968 182.559993,53.434672 184.032,52.368 C185.504007,51.301328 186.474664,49.6800109 186.944,47.504 L192.32,47.504 Z M198.784,12.304 L198.784,58 L204.224,58 L204.224,12.304 L198.784,12.304 Z" id="afcapel" fill="#D0011B"></path>
        <path d="M210.8,54.128 C210.8,53.5039969 211.003998,52.9700022 211.412,52.526 C211.820002,52.0819978 212.359997,51.86 213.032,51.86 C213.704003,51.86 214.243998,52.0819978 214.652,52.526 C215.060002,52.9700022 215.264,53.5039969 215.264,54.128 C215.264,54.7520031 215.060002,55.2859978 214.652,55.73 C214.243998,56.1740022 213.704003,56.396 213.032,56.396 C212.359997,56.396 211.820002,56.1740022 211.412,55.73 C211.003998,55.2859978 210.8,54.7520031 210.8,54.128 Z M221.024,53.624 C219.535993,51.7519906 218.792,49.3580146 218.792,46.442 C218.792,43.5259854 219.583992,41.1140095 221.168,39.206 C222.752008,37.2979905 224.947986,36.344 227.756,36.344 C230.108012,36.344 232.26799,36.847995 234.236,37.856 L233.156,40.484 C231.523992,39.7399963 229.988007,39.368 228.548,39.368 C226.62799,39.368 225.206005,40.0039936 224.282,41.276 C223.357995,42.5480064 222.896,44.1439904 222.896,46.064 C222.896,50.9600245 224.791981,53.408 228.584,53.408 C230.000007,53.408 231.475992,53.0000041 233.012,52.184 L234.272,54.704 C232.423991,55.8560058 230.126014,56.432 227.378,56.432 C224.629986,56.432 222.512007,55.4960094 221.024,53.624 Z M246.332,36.344 C248.684012,36.344 250.627992,37.1659918 252.164,38.81 C253.700008,40.4540082 254.468,42.871984 254.468,46.064 C254.468,49.256016 253.682008,51.7819907 252.11,53.642 C250.537992,55.5020093 248.180016,56.432 245.036,56.432 C242.683988,56.432 240.740008,55.5980083 239.204,53.93 C237.667992,52.2619917 236.9,49.832016 236.9,46.64 C236.9,43.447984 237.685992,40.9340092 239.258,39.098 C240.830008,37.2619908 243.187984,36.344 246.332,36.344 Z M242.21,51.842 C243.014004,52.8860052 244.219992,53.408 245.828,53.408 C247.436008,53.408 248.593996,52.7840062 249.302,51.536 C250.010004,50.2879938 250.364,48.4580121 250.364,46.046 C250.364,43.6339879 249.962004,41.9180051 249.158,40.898 C248.353996,39.8779949 247.244007,39.368 245.828,39.368 C244.027991,39.368 242.774004,39.9799939 242.066,41.204 C241.357996,42.4280061 241.004,44.2459879 241.004,46.658 C241.004,49.0700121 241.405996,50.7979948 242.21,51.842 Z M259.796,42.896 C259.796,40.7359892 259.580002,38.7920086 259.148,37.064 L262.172,36.668 L262.856,38.468 C264.89601,37.0519929 266.989989,36.344 269.138,36.344 C271.286011,36.344 272.863995,37.039993 273.872,38.432 C275.81601,37.039993 277.897989,36.344 280.118,36.344 C282.338011,36.344 283.945995,36.9319941 284.942,38.108 C285.938005,39.2840059 286.436,41.0479882 286.436,43.4 L286.436,56 L282.548,56 L282.548,44.12 C282.548,41.7919884 281.996006,40.3400029 280.892,39.764 C280.411998,39.4999987 279.800004,39.368 279.056,39.368 C277.807994,39.368 276.416008,39.9079946 274.88,40.988 C275.024001,41.7320037 275.096,42.5359957 275.096,43.4 L275.096,56 L271.208,56 L271.208,44.12 C271.208,42.6319926 270.980002,41.4680042 270.524,40.628 C270.067998,39.7879958 269.144007,39.368 267.752,39.368 C266.359993,39.368 265.004007,39.8839948 263.684,40.916 L263.684,56 L259.796,56 L259.796,42.896 Z" id=".com" fill="#8B572A"></path>
    </g>
</svg>