<?xml version="1.0" encoding="UTF-8"?>
<svg width="281px" height="75px" viewBox="0 0 281 75" version="1.1" xmlns="http://www.w3.org/2000/svg" xmlns:xlink="http://www.w3.org/1999/xlink">
    <!-- Generator: Sketch 43.2 (39069) - http://www.bohemiancoding.com/sketch -->
    <title>Slice 1</title>
    <desc>Created with Sketch.</desc>
    <defs></defs>
    <g id="Page-1" stroke="none" stroke-width="1" fill="none" fill-rule="evenodd">
        <path d="M16.96875,53.5 L16.8125,53.625 C16.7916666,53.625 16.6197933,53.7760402 16.296875,54.078125 C15.9739567,54.3802098 15.6145853,54.7135398 15.21875,55.078125 C14.8229147,55.4427102 14.4479184,55.7812484 14.09375,56.09375 C13.7395816,56.4062516 13.5208338,56.5729166 13.4375,56.59375 C12.77083,56.9687519 12.0156292,57.322915 11.171875,57.65625 C10.3281208,57.989585 9.37500531,58.15625 8.3125,58.15625 C7.56249625,58.15625 6.81771203,58.0520844 6.078125,57.84375 C5.33853797,57.6354156 4.67187797,57.2760442 4.078125,56.765625 C3.48437203,56.2552058 3.00521016,55.5729209 2.640625,54.71875 C2.27603984,53.8645791 2.09375,52.7812566 2.09375,51.46875 C2.09375,50.9895809 2.21354047,50.380212 2.453125,49.640625 C2.69270953,48.901038 3.09374719,48.2291697 3.65625,47.625 C4.23958625,46.9374966 4.88020484,46.3593773 5.578125,45.890625 C6.27604516,45.4218727 7.04687078,45.0052102 7.890625,44.640625 C8.73437922,44.2760398 9.66666156,43.9479181 10.6875,43.65625 C11.7083384,43.3645819 12.8437437,43.0625016 14.09375,42.75 C14.3854181,42.6874997 14.697915,42.6145838 15.03125,42.53125 C15.364585,42.4479162 15.6822902,42.3645838 15.984375,42.28125 C16.2864598,42.1979162 16.5468739,42.119792 16.765625,42.046875 C16.9843761,41.973958 17.1249997,41.9062503 17.1875,41.84375 C17.2916672,41.7604162 17.3906245,41.6875003 17.484375,41.625 C17.5781255,41.5624997 17.6354166,41.4166678 17.65625,41.1875 C17.7395838,40.7083309 17.817708,40.1979194 17.890625,39.65625 C17.963542,39.1145806 18.0260414,38.5729194 18.078125,38.03125 C18.1302086,37.4895806 18.1666666,36.9687525 18.1875,36.46875 C18.2083334,35.9687475 18.21875,35.5208353 18.21875,35.125 C18.21875,34.3124959 18.0625016,33.5520869 17.75,32.84375 C17.4374984,32.1354131 17.0156277,31.5208359 16.484375,31 C15.9531223,30.4791641 15.3333369,30.0729181 14.625,29.78125 C13.9166631,29.4895819 13.1666706,29.34375 12.375,29.34375 C11.7499969,29.34375 11.0989617,29.4947902 10.421875,29.796875 C9.74478828,30.0989598 9.13021109,30.4999975 8.578125,31 C8.02603891,31.5000025 7.57291844,32.0677052 7.21875,32.703125 C6.86458156,33.3385448 6.6875,33.98958 6.6875,34.65625 C6.6875,34.9687516 6.7708325,35.2187491 6.9375,35.40625 C7.1041675,35.5937509 7.28124906,35.7708325 7.46875,35.9375 C7.65625094,36.1041675 7.8333325,36.2916656 8,36.5 C8.1666675,36.7083344 8.25,36.9895816 8.25,37.34375 C8.25,38.1979209 7.97916937,38.8645809 7.4375,39.34375 C6.89583063,39.8229191 6.22917062,40.0625 5.4375,40.0625 C4.95833094,40.0625 4.53646016,39.9635427 4.171875,39.765625 C3.80728984,39.5677073 3.48958469,39.3072933 3.21875,38.984375 C2.94791531,38.6614567 2.74479234,38.2916687 2.609375,37.875 C2.47395766,37.4583313 2.40625,37.0312522 2.40625,36.59375 C2.40625,36.1770813 2.52083219,35.7291691 2.75,35.25 C2.97916781,34.7708309 3.260415,34.3020856 3.59375,33.84375 C3.927085,33.3854144 4.27603984,32.953127 4.640625,32.546875 C5.00521016,32.140623 5.31249875,31.8125012 5.5625,31.5625 C6.02083562,31.1249978 6.46353953,30.739585 6.890625,30.40625 C7.31771047,30.072915 7.77083094,29.739585 8.25,29.40625 C8.60416844,29.1770822 8.96874812,28.9895841 9.34375,28.84375 C9.71875188,28.6979159 10.0833316,28.5729172 10.4375,28.46875 C10.6458344,28.3854162 10.9322898,28.2864589 11.296875,28.171875 C11.6614602,28.0572911 12.0677061,27.9479172 12.515625,27.84375 C12.9635439,27.7395828 13.4322892,27.651042 13.921875,27.578125 C14.4114608,27.505208 14.8854144,27.46875 15.34375,27.46875 C16.3229216,27.46875 17.2864536,27.6041653 18.234375,27.875 C19.1822964,28.1458347 20.026038,28.5729137 20.765625,29.15625 C21.505212,29.7395863 22.1041644,30.4895788 22.5625,31.40625 C23.0208356,32.3229212 23.25,33.4166603 23.25,34.6875 C23.25,36.1041737 23.1770841,37.5520759 23.03125,39.03125 C22.8854159,40.5104241 22.7239592,41.9270766 22.546875,43.28125 C22.3697908,44.6354234 22.2083341,45.8749944 22.0625,47 C21.9166659,48.1250056 21.84375,49.0312466 21.84375,49.71875 C21.84375,50.0729184 21.8749997,50.5156223 21.9375,51.046875 C22.0000003,51.5781277 22.1197908,52.0885392 22.296875,52.578125 C22.4739592,53.0677108 22.7187484,53.4895816 23.03125,53.84375 C23.3437516,54.1979184 23.7499975,54.375 24.25,54.375 C24.8333363,54.375 25.3958306,54.2395847 25.9375,53.96875 C26.4791694,53.6979153 26.9791644,53.3541687 27.4375,52.9375 C27.8958356,52.5208313 28.3072898,52.0625025 28.671875,51.5625 C29.0364602,51.0624975 29.3333322,50.5729191 29.5625,50.09375 C29.6041669,50.0104162 29.6510414,49.9218755 29.703125,49.828125 C29.7552086,49.7343745 29.8333328,49.6875 29.9375,49.6875 C30.0208338,49.6875 30.0625,49.7604159 30.0625,49.90625 L30.0625,50.21875 C30.0625,51.1354212 29.8906267,52.057287 29.546875,52.984375 C29.2031233,53.911463 28.7031283,54.7552045 28.046875,55.515625 C27.3906217,56.2760455 26.5833381,56.8958309 25.625,57.375 C24.6666619,57.8541691 23.5625063,58.09375 22.3125,58.09375 C22.0833322,58.09375 21.8177098,58.0781252 21.515625,58.046875 C21.2135402,58.0156248 20.9270847,57.9479172 20.65625,57.84375 C20.1145806,57.5729153 19.6666684,57.2760433 19.3125,56.953125 C18.9583316,56.6302067 18.651043,56.2916684 18.390625,55.9375 C18.130207,55.5833316 17.8906261,55.203127 17.671875,54.796875 C17.4531239,54.390623 17.2187512,53.9583356 16.96875,53.5 Z M7.0625,52.375 C7.0625,52.8958359 7.16666563,53.3437481 7.375,53.71875 C7.58333437,54.0937519 7.85937328,54.4010405 8.203125,54.640625 C8.54687672,54.8802095 8.93749781,55.0572911 9.375,55.171875 C9.81250219,55.2864589 10.2499978,55.34375 10.6875,55.34375 C11.2291694,55.34375 11.7552058,55.2864589 12.265625,55.171875 C12.7760442,55.0572911 13.2604144,54.9062509 13.71875,54.71875 C14.1770856,54.5312491 14.5989564,54.3281261 14.984375,54.109375 C15.3697936,53.8906239 15.7187484,53.6770844 16.03125,53.46875 C16.5520859,53.0104144 16.8125,52.5416691 16.8125,52.0625 C16.8125,50.5208256 16.9114573,49.0677152 17.109375,47.703125 C17.3072927,46.3385348 17.40625,45.0000066 17.40625,43.6875 C17.40625,43.5416659 17.3906252,43.3854175 17.359375,43.21875 C17.3281248,43.0520825 17.2291675,42.96875 17.0625,42.96875 C16.8749991,42.96875 16.6927092,42.9947914 16.515625,43.046875 C16.3385408,43.0989586 16.1770841,43.1458331 16.03125,43.1875 C15.1145787,43.520835 14.2187544,43.8854147 13.34375,44.28125 C12.4687456,44.6770853 11.6041709,45.0833313 10.75,45.5 C10.1666637,45.8125016 9.64583562,46.2291641 9.1875,46.75 C8.72916438,47.2708359 8.34375156,47.8437469 8.03125,48.46875 C7.71874844,49.0937531 7.4791675,49.7447883 7.3125,50.421875 C7.1458325,51.0989617 7.0625,51.7499969 7.0625,52.375 Z M41.75,31.46875 L41.75,55.25 C41.75,55.4791678 41.7916662,55.7083322 41.875,55.9375 C41.9583338,56.1666678 42.1874981,56.28125 42.5625,56.28125 L46.03125,56.28125 C46.2187509,56.28125 46.4166656,56.2864583 46.625,56.296875 C46.8333344,56.3072917 47.0260408,56.3437497 47.203125,56.40625 C47.3802092,56.4687503 47.5260411,56.5624994 47.640625,56.6875 C47.7552089,56.8125006 47.8125,56.9999988 47.8125,57.25 C47.8125,57.3750006 47.7343758,57.5312491 47.578125,57.71875 C47.4218742,57.9062509 47.2291678,58 47,58 L42.25,58 C41.8541647,58 41.3385448,57.9843752 40.703125,57.953125 C40.0677052,57.9218748 39.4583363,57.90625 38.875,57.90625 C38.2291634,57.90625 37.6875022,57.9218748 37.25,57.953125 C36.8124978,57.9843752 36.2916697,58.0208331 35.6875,58.0625 C35.4583322,58.0833334 35.2291678,58.09375 35,58.09375 L32.5,58.09375 C32.1458316,58.09375 31.8593761,58.0677086 31.640625,58.015625 C31.4218739,57.9635414 31.3125,57.7916681 31.3125,57.5 C31.3125,57.3749994 31.3749994,57.2604172 31.5,57.15625 C31.6250006,57.0520828 31.7812491,56.963542 31.96875,56.890625 C32.1562509,56.817708 32.3593739,56.7656252 32.578125,56.734375 C32.7968761,56.7031248 33.0104156,56.6875 33.21875,56.6875 L33.8125,56.6875 C34.0833347,56.6875 34.3958316,56.6770834 34.75,56.65625 C35.1041684,56.6354166 35.4583316,56.5625006 35.8125,56.4375 C35.8958338,56.3958331 35.9635414,56.3229172 36.015625,56.21875 C36.0677086,56.1145828 36.1458328,56.0208338 36.25,55.9375 L36.25,31.46875 C36.25,31.0729147 35.9895859,30.875 35.46875,30.875 C34.8645803,30.875 34.2447948,30.9427077 33.609375,31.078125 C32.9739552,31.2135423 32.3854194,31.28125 31.84375,31.28125 L31.4375,31.28125 C31.2916659,31.28125 31.1458341,31.2656252 31,31.234375 C30.8541659,31.2031248 30.7343755,31.1614586 30.640625,31.109375 C30.5468745,31.0572914 30.5,30.9791672 30.5,30.875 C30.5,30.6666656 30.6874981,30.4687509 31.0625,30.28125 C31.4375019,30.0937491 31.8854141,29.9062509 32.40625,29.71875 C32.9270859,29.5312491 33.4531223,29.3333344 33.984375,29.125 C34.5156277,28.9166656 34.9270819,28.6979178 35.21875,28.46875 C35.6354187,28.1145816 35.9218742,27.6979191 36.078125,27.21875 C36.2343758,26.7395809 36.3385414,26.2343777 36.390625,25.703125 C36.4427086,25.1718723 36.4895831,24.6354194 36.53125,24.09375 C36.5729169,23.5520806 36.6874991,23.0312525 36.875,22.53125 C37.54167,20.8020747 38.4531192,19.2760483 39.609375,17.953125 C40.7656308,16.6302017 42.0885342,15.5156295 43.578125,14.609375 C45.0677158,13.7031205 46.682283,13.0208356 48.421875,12.5625 C50.161467,12.1041644 51.9374909,11.875 53.75,11.875 C54.4375034,11.875 55.2864533,11.911458 56.296875,11.984375 C57.3072967,12.057292 58.2916619,12.2447902 59.25,12.546875 C60.2083381,12.8489598 61.0260383,13.2916637 61.703125,13.875 C62.3802117,14.4583363 62.71875,15.249995 62.71875,16.25 C62.71875,16.4583344 62.6614589,16.729165 62.546875,17.0625 C62.4322911,17.395835 62.2916675,17.6666656 62.125,17.875 C61.4374966,18.7916712 60.6145881,19.25 59.65625,19.25 C59.3020816,19.25 58.9322936,19.2031255 58.546875,19.109375 C58.1614564,19.0156245 57.802085,18.8645844 57.46875,18.65625 C57.3020825,18.5520828 57.1302092,18.3906261 56.953125,18.171875 C56.7760408,17.9531239 56.6458338,17.8020838 56.5625,17.71875 C56.0833309,16.9479128 55.5781277,16.3697936 55.046875,15.984375 C54.5156223,15.5989564 53.8645872,15.239585 53.09375,14.90625 C52.9270825,14.8437497 52.6875016,14.7656255 52.375,14.671875 C52.0624984,14.5781245 51.7291684,14.4895838 51.375,14.40625 C51.0208316,14.3229162 50.6666684,14.2500003 50.3125,14.1875 C49.9583316,14.1249997 49.6458347,14.09375 49.375,14.09375 C48.4999956,14.09375 47.6562541,14.2083322 46.84375,14.4375 C46.0312459,14.6666678 45.2291706,15.0416641 44.4375,15.5625 C44.0416647,15.7916678 43.7083347,16.1302061 43.4375,16.578125 C43.1666653,17.0260439 42.9479175,17.4999975 42.78125,18 C42.6145825,18.5000025 42.4843755,18.9895809 42.390625,19.46875 C42.2968745,19.9479191 42.2291669,20.3229153 42.1875,20.59375 C42.0208325,21.5312547 41.9218752,22.4843702 41.890625,23.453125 C41.8593748,24.4218798 41.84375,25.3749953 41.84375,26.3125 C41.84375,26.4375006 41.8489583,26.5937491 41.859375,26.78125 C41.8697917,26.9687509 41.8958331,27.1562491 41.9375,27.34375 C41.9791669,27.5312509 42.0416662,27.6874994 42.125,27.8125 C42.2083338,27.9375006 42.3333325,28 42.5,28 C42.7916681,28 43.2187472,27.9791669 43.78125,27.9375 C44.3437528,27.8958331 44.9531217,27.8437503 45.609375,27.78125 C46.2656283,27.7187497 46.9322883,27.6666669 47.609375,27.625 C48.2864617,27.5833331 48.9062472,27.5625 49.46875,27.5625 C50.0520863,27.5625 50.34375,27.8333306 50.34375,28.375 C50.34375,28.6041678 50.3281252,28.921873 50.296875,29.328125 C50.2656248,29.734377 50.2083338,30.0520822 50.125,30.28125 C50.125,30.4062506 49.9739598,30.4895831 49.671875,30.53125 C49.3697902,30.5729169 49.1041678,30.59375 48.875,30.59375 C48.1458297,30.59375 47.5260442,30.5781252 47.015625,30.546875 C46.5052058,30.5156248 46.0364605,30.4843752 45.609375,30.453125 L44.328125,30.359375 C43.9010395,30.3281248 43.4166694,30.3125 42.875,30.3125 C42.6458322,30.3125 42.494792,30.3333331 42.421875,30.375 C42.348958,30.4166669 42.2708338,30.4479166 42.1875,30.46875 C41.9583322,30.6145841 41.8385417,30.7916656 41.828125,31 C41.8177083,31.2083344 41.7916669,31.3645828 41.75,31.46875 Z M64.09375,53.625 C64.3645847,53.7916675 64.6354153,53.9374994 64.90625,54.0625 C65.1770847,54.1875006 65.4687484,54.2968745 65.78125,54.390625 C66.0937516,54.4843755 66.4374981,54.5520831 66.8125,54.59375 C67.1875019,54.6354169 67.6145809,54.65625 68.09375,54.65625 C68.8020869,54.65625 69.5416628,54.4791684 70.3125,54.125 C71.0833372,53.7708316 71.8124966,53.3281277 72.5,52.796875 C73.1875034,52.2656223 73.8020806,51.6822948 74.34375,51.046875 C74.8854194,50.4114552 75.2916653,49.8229194 75.5625,49.28125 C75.6666672,49.0520822 75.8072908,48.8906255 75.984375,48.796875 C76.1614592,48.7031245 76.3437491,48.6354169 76.53125,48.59375 C76.6770841,48.6979172 76.7604166,48.8229159 76.78125,48.96875 C76.8020834,49.1145841 76.8125,49.2604159 76.8125,49.40625 C76.8125,50.1145869 76.6197936,50.7968717 76.234375,51.453125 C75.8489564,52.1093783 75.4375022,52.7187472 75,53.28125 C74.3541634,54.0937541 73.6875034,54.8072886 73,55.421875 C72.3124966,56.0364614 71.5781289,56.5520813 70.796875,56.96875 C70.0156211,57.3854187 69.1666713,57.6979156 68.25,57.90625 C67.3333288,58.1145844 66.3229222,58.21875 65.21875,58.21875 C63.2395734,58.21875 61.4791744,57.7708378 59.9375,56.875 C58.3958256,55.9791622 57.0937553,54.8177155 56.03125,53.390625 C54.9687447,51.9635345 54.1562528,50.3489673 53.59375,48.546875 C53.0312472,46.7447827 52.75,44.9375091 52.75,43.125 C52.75,41.1666569 53.0677052,39.2500094 53.703125,37.375 C54.3385448,35.4999906 55.2499941,33.8281323 56.4375,32.359375 C57.6250059,30.8906177 59.0729081,29.7083378 60.78125,28.8125 C62.4895919,27.9166622 64.4270725,27.46875 66.59375,27.46875 C67.4062541,27.46875 68.2343708,27.5260411 69.078125,27.640625 C69.9218792,27.7552089 70.7395794,27.9531236 71.53125,28.234375 C72.3229206,28.5156264 73.0677048,28.8958309 73.765625,29.375 C74.4635452,29.8541691 75.0624975,30.4583297 75.5625,31.1875 C75.7291675,31.4375012 75.8958325,31.6666656 76.0625,31.875 C76.2291675,32.0833344 76.3802077,32.2864573 76.515625,32.484375 C76.6510423,32.6822927 76.7604162,32.8906239 76.84375,33.109375 C76.9270838,33.3281261 76.96875,33.5833319 76.96875,33.875 C76.96875,34.2708353 76.8906258,34.6249984 76.734375,34.9375 C76.5781242,35.2500016 76.369793,35.5104156 76.109375,35.71875 C75.848957,35.9270844 75.5468767,36.0885411 75.203125,36.203125 C74.8593733,36.3177089 74.5104184,36.375 74.15625,36.375 C73.6354141,36.375 73.2135433,36.1927102 72.890625,35.828125 C72.5677067,35.4635398 72.2656264,35.0052111 71.984375,34.453125 C71.7031236,33.9010389 71.4062516,33.3072948 71.09375,32.671875 C70.7812484,32.0364552 70.3750025,31.4427111 69.875,30.890625 C69.3749975,30.3385389 68.7500037,29.8802102 68,29.515625 C67.2499963,29.1510398 66.2916725,28.96875 65.125,28.96875 C64.4791634,28.96875 63.8437531,29.0885405 63.21875,29.328125 C62.5937469,29.5677095 62.0156277,29.890623 61.484375,30.296875 C60.9531223,30.703127 60.4791687,31.1614558 60.0625,31.671875 C59.6458313,32.1822942 59.3125012,32.7187472 59.0625,33.28125 C58.6041644,34.4687559 58.338542,35.6510358 58.265625,36.828125 C58.192708,38.0052142 58.15625,39.1874941 58.15625,40.375 C58.15625,41.6666731 58.2447908,42.9479103 58.421875,44.21875 C58.5989592,45.4895897 58.9114561,46.7031192 59.359375,47.859375 C59.8072939,49.0156308 60.4114545,50.0885367 61.171875,51.078125 C61.9322955,52.0677133 62.9062441,52.9166631 64.09375,53.625 Z M95.90625,53.5 L95.75,53.625 C95.7291666,53.625 95.5572933,53.7760402 95.234375,54.078125 C94.9114567,54.3802098 94.5520853,54.7135398 94.15625,55.078125 C93.7604147,55.4427102 93.3854184,55.7812484 93.03125,56.09375 C92.6770816,56.4062516 92.4583338,56.5729166 92.375,56.59375 C91.70833,56.9687519 90.9531292,57.322915 90.109375,57.65625 C89.2656208,57.989585 88.3125053,58.15625 87.25,58.15625 C86.4999962,58.15625 85.755212,58.0520844 85.015625,57.84375 C84.276038,57.6354156 83.609378,57.2760442 83.015625,56.765625 C82.421872,56.2552058 81.9427102,55.5729209 81.578125,54.71875 C81.2135398,53.8645791 81.03125,52.7812566 81.03125,51.46875 C81.03125,50.9895809 81.1510405,50.380212 81.390625,49.640625 C81.6302095,48.901038 82.0312472,48.2291697 82.59375,47.625 C83.1770863,46.9374966 83.8177048,46.3593773 84.515625,45.890625 C85.2135452,45.4218727 85.9843708,45.0052102 86.828125,44.640625 C87.6718792,44.2760398 88.6041616,43.9479181 89.625,43.65625 C90.6458384,43.3645819 91.7812437,43.0625016 93.03125,42.75 C93.3229181,42.6874997 93.635415,42.6145838 93.96875,42.53125 C94.302085,42.4479162 94.6197902,42.3645838 94.921875,42.28125 C95.2239598,42.1979162 95.4843739,42.119792 95.703125,42.046875 C95.9218761,41.973958 96.0624997,41.9062503 96.125,41.84375 C96.2291672,41.7604162 96.3281245,41.6875003 96.421875,41.625 C96.5156255,41.5624997 96.5729166,41.4166678 96.59375,41.1875 C96.6770838,40.7083309 96.755208,40.1979194 96.828125,39.65625 C96.901042,39.1145806 96.9635414,38.5729194 97.015625,38.03125 C97.0677086,37.4895806 97.1041666,36.9687525 97.125,36.46875 C97.1458334,35.9687475 97.15625,35.5208353 97.15625,35.125 C97.15625,34.3124959 97.0000016,33.5520869 96.6875,32.84375 C96.3749984,32.1354131 95.9531277,31.5208359 95.421875,31 C94.8906223,30.4791641 94.2708369,30.0729181 93.5625,29.78125 C92.8541631,29.4895819 92.1041706,29.34375 91.3125,29.34375 C90.6874969,29.34375 90.0364617,29.4947902 89.359375,29.796875 C88.6822883,30.0989598 88.0677111,30.4999975 87.515625,31 C86.9635389,31.5000025 86.5104184,32.0677052 86.15625,32.703125 C85.8020816,33.3385448 85.625,33.98958 85.625,34.65625 C85.625,34.9687516 85.7083325,35.2187491 85.875,35.40625 C86.0416675,35.5937509 86.2187491,35.7708325 86.40625,35.9375 C86.5937509,36.1041675 86.7708325,36.2916656 86.9375,36.5 C87.1041675,36.7083344 87.1875,36.9895816 87.1875,37.34375 C87.1875,38.1979209 86.9166694,38.8645809 86.375,39.34375 C85.8333306,39.8229191 85.1666706,40.0625 84.375,40.0625 C83.8958309,40.0625 83.4739602,39.9635427 83.109375,39.765625 C82.7447898,39.5677073 82.4270847,39.3072933 82.15625,38.984375 C81.8854153,38.6614567 81.6822923,38.2916687 81.546875,37.875 C81.4114577,37.4583313 81.34375,37.0312522 81.34375,36.59375 C81.34375,36.1770813 81.4583322,35.7291691 81.6875,35.25 C81.9166678,34.7708309 82.197915,34.3020856 82.53125,33.84375 C82.864585,33.3854144 83.2135398,32.953127 83.578125,32.546875 C83.9427102,32.140623 84.2499988,31.8125012 84.5,31.5625 C84.9583356,31.1249978 85.4010395,30.739585 85.828125,30.40625 C86.2552105,30.072915 86.7083309,29.739585 87.1875,29.40625 C87.5416684,29.1770822 87.9062481,28.9895841 88.28125,28.84375 C88.6562519,28.6979159 89.0208316,28.5729172 89.375,28.46875 C89.5833344,28.3854162 89.8697898,28.2864589 90.234375,28.171875 C90.5989602,28.0572911 91.0052061,27.9479172 91.453125,27.84375 C91.9010439,27.7395828 92.3697892,27.651042 92.859375,27.578125 C93.3489608,27.505208 93.8229144,27.46875 94.28125,27.46875 C95.2604216,27.46875 96.2239536,27.6041653 97.171875,27.875 C98.1197964,28.1458347 98.963538,28.5729137 99.703125,29.15625 C100.442712,29.7395863 101.041664,30.4895788 101.5,31.40625 C101.958336,32.3229212 102.1875,33.4166603 102.1875,34.6875 C102.1875,36.1041737 102.114584,37.5520759 101.96875,39.03125 C101.822916,40.5104241 101.661459,41.9270766 101.484375,43.28125 C101.307291,44.6354234 101.145834,45.8749944 101,47 C100.854166,48.1250056 100.78125,49.0312466 100.78125,49.71875 C100.78125,50.0729184 100.8125,50.5156223 100.875,51.046875 C100.9375,51.5781277 101.057291,52.0885392 101.234375,52.578125 C101.411459,53.0677108 101.656248,53.4895816 101.96875,53.84375 C102.281252,54.1979184 102.687498,54.375 103.1875,54.375 C103.770836,54.375 104.333331,54.2395847 104.875,53.96875 C105.416669,53.6979153 105.916664,53.3541687 106.375,52.9375 C106.833336,52.5208313 107.24479,52.0625025 107.609375,51.5625 C107.97396,51.0624975 108.270832,50.5729191 108.5,50.09375 C108.541667,50.0104162 108.588541,49.9218755 108.640625,49.828125 C108.692709,49.7343745 108.770833,49.6875 108.875,49.6875 C108.958334,49.6875 109,49.7604159 109,49.90625 L109,50.21875 C109,51.1354212 108.828127,52.057287 108.484375,52.984375 C108.140623,53.911463 107.640628,54.7552045 106.984375,55.515625 C106.328122,56.2760455 105.520838,56.8958309 104.5625,57.375 C103.604162,57.8541691 102.500006,58.09375 101.25,58.09375 C101.020832,58.09375 100.75521,58.0781252 100.453125,58.046875 C100.15104,58.0156248 99.8645847,57.9479172 99.59375,57.84375 C99.0520806,57.5729153 98.6041684,57.2760433 98.25,56.953125 C97.8958316,56.6302067 97.588543,56.2916684 97.328125,55.9375 C97.067707,55.5833316 96.8281261,55.203127 96.609375,54.796875 C96.3906239,54.390623 96.1562512,53.9583356 95.90625,53.5 Z M86,52.375 C86,52.8958359 86.1041656,53.3437481 86.3125,53.71875 C86.5208344,54.0937519 86.7968733,54.4010405 87.140625,54.640625 C87.4843767,54.8802095 87.8749978,55.0572911 88.3125,55.171875 C88.7500022,55.2864589 89.1874978,55.34375 89.625,55.34375 C90.1666694,55.34375 90.6927058,55.2864589 91.203125,55.171875 C91.7135442,55.0572911 92.1979144,54.9062509 92.65625,54.71875 C93.1145856,54.5312491 93.5364564,54.3281261 93.921875,54.109375 C94.3072936,53.8906239 94.6562484,53.6770844 94.96875,53.46875 C95.4895859,53.0104144 95.75,52.5416691 95.75,52.0625 C95.75,50.5208256 95.8489573,49.0677152 96.046875,47.703125 C96.2447927,46.3385348 96.34375,45.0000066 96.34375,43.6875 C96.34375,43.5416659 96.3281252,43.3854175 96.296875,43.21875 C96.2656248,43.0520825 96.1666675,42.96875 96,42.96875 C95.8124991,42.96875 95.6302092,42.9947914 95.453125,43.046875 C95.2760408,43.0989586 95.1145841,43.1458331 94.96875,43.1875 C94.0520787,43.520835 93.1562544,43.8854147 92.28125,44.28125 C91.4062456,44.6770853 90.5416709,45.0833313 89.6875,45.5 C89.1041637,45.8125016 88.5833356,46.2291641 88.125,46.75 C87.6666644,47.2708359 87.2812516,47.8437469 86.96875,48.46875 C86.6562484,49.0937531 86.4166675,49.7447883 86.25,50.421875 C86.0833325,51.0989617 86,51.7499969 86,52.375 Z M135.28125,43.5625 C135.28125,42.5208281 135.192709,41.4531305 135.015625,40.359375 C134.838541,39.2656195 134.562502,38.2031302 134.1875,37.171875 C133.812498,36.1406198 133.338545,35.1666712 132.765625,34.25 C132.192705,33.3333288 131.510421,32.5364617 130.71875,31.859375 C129.927079,31.1822883 129.026047,30.6458353 128.015625,30.25 C127.005203,29.8541647 125.875006,29.65625 124.625,29.65625 C123.874996,29.65625 123.182295,29.7812488 122.546875,30.03125 C121.911455,30.2812512 121.369794,30.6249978 120.921875,31.0625 C120.473956,31.5000022 120.125001,32.0260386 119.875,32.640625 C119.624999,33.2552114 119.5,33.9374962 119.5,34.6875 C119.5,34.8125006 119.505208,34.9583325 119.515625,35.125 C119.526042,35.2916675 119.546875,35.5624981 119.578125,35.9375 C119.609375,36.3125019 119.645833,36.8385383 119.6875,37.515625 C119.729167,38.1927117 119.78125,39.1093692 119.84375,40.265625 C119.90625,41.4218808 119.96875,42.869783 120.03125,44.609375 C120.09375,46.348967 120.166666,48.4687375 120.25,50.96875 C120.25,51.2187512 120.364582,51.4895819 120.59375,51.78125 C120.822918,52.0729181 121.052082,52.2916659 121.28125,52.4375 C121.822919,52.8958356 122.333331,53.3072898 122.8125,53.671875 C123.291669,54.0364602 123.776039,54.3437488 124.265625,54.59375 C124.755211,54.8437512 125.265622,55.0312494 125.796875,55.15625 C126.328128,55.2812506 126.916663,55.34375 127.5625,55.34375 C128.562505,55.34375 129.453121,55.1197939 130.234375,54.671875 C131.015629,54.2239561 131.697914,53.6510452 132.28125,52.953125 C132.864586,52.2552048 133.359373,51.4791709 133.765625,50.625 C134.171877,49.7708291 134.499999,48.9270875 134.75,48.09375 C134.895834,47.6145809 135.005208,47.1822936 135.078125,46.796875 C135.151042,46.4114564 135.197917,46.0416684 135.21875,45.6875 C135.239583,45.3333316 135.25,44.989585 135.25,44.65625 C135.25,44.322915 135.260417,43.9583353 135.28125,43.5625 Z M107.4375,32.3125 C107.4375,32.0416653 107.624998,31.8229175 108,31.65625 C109.791676,31.2395813 111.5677,30.6822952 113.328125,29.984375 C115.08855,29.2864548 116.781242,28.5000044 118.40625,27.625 C118.510417,27.5624997 118.609375,27.5208334 118.703125,27.5 C118.796875,27.4791666 118.885416,27.46875 118.96875,27.46875 C119.114584,27.46875 119.1875,27.5208328 119.1875,27.625 L119.1875,31.28125 C119.1875,31.5312512 119.239583,31.65625 119.34375,31.65625 C120.468756,30.2812431 121.812492,29.3020863 123.375,28.71875 C124.937508,28.1354138 126.604158,27.84375 128.375,27.84375 C129.750007,27.84375 131.015619,28.0572895 132.171875,28.484375 C133.328131,28.9114605 134.385412,29.4999962 135.34375,30.25 C136.302088,31.0000038 137.161455,31.8906198 137.921875,32.921875 C138.682295,33.9531302 139.354164,35.0833272 139.9375,36.3125 C140.375002,37.2500047 140.656249,38.2343698 140.78125,39.265625 C140.906251,40.2968802 140.96875,41.3333281 140.96875,42.375 C140.96875,44.5625109 140.598962,46.5312412 139.859375,48.28125 C139.119788,50.0312588 138.093757,51.5260355 136.78125,52.765625 C135.468743,54.0052145 133.916676,54.9531217 132.125,55.609375 C130.333324,56.2656283 128.395844,56.59375 126.3125,56.59375 C125.979165,56.59375 125.604169,56.557292 125.1875,56.484375 C124.770831,56.411458 124.343752,56.3177089 123.90625,56.203125 C123.468748,56.0885411 123.020836,55.9583341 122.5625,55.8125 C122.104164,55.6666659 121.677085,55.5312506 121.28125,55.40625 C120.968748,55.3020828 120.739584,55.25 120.59375,55.25 C120.302082,55.25 120.15625,55.3958319 120.15625,55.6875 L120.15625,70.21875 C120.15625,70.552085 120.333332,70.71875 120.6875,70.71875 C121.208336,70.71875 121.755205,70.682292 122.328125,70.609375 C122.901045,70.536458 123.416664,70.5 123.875,70.5 C124.062501,70.5 124.270832,70.5781242 124.5,70.734375 C124.729168,70.8906258 124.84375,71.0624991 124.84375,71.25 C124.84375,71.5208347 124.69271,71.7239577 124.390625,71.859375 C124.08854,71.9947923 123.833334,72.0625 123.625,72.0625 L117,72.0625 C116.791666,72.0625 116.38542,72.0729166 115.78125,72.09375 C115.17708,72.1145834 114.536462,72.1406248 113.859375,72.171875 C113.182288,72.2031252 112.552086,72.2291666 111.96875,72.25 C111.385414,72.2708334 111.010418,72.28125 110.84375,72.28125 C110.739583,72.28125 110.598959,72.2708334 110.421875,72.25 C110.244791,72.2291666 110.078126,72.1927086 109.921875,72.140625 C109.765624,72.0885414 109.630209,72.0208338 109.515625,71.9375 C109.401041,71.8541662 109.34375,71.7500006 109.34375,71.625 C109.34375,71.1458309 109.593748,70.90625 110.09375,70.90625 L113.1875,70.90625 C113.604169,70.90625 113.942707,70.8645838 114.203125,70.78125 C114.463543,70.6979162 114.59375,70.4166691 114.59375,69.9375 L114.59375,36.65625 C114.59375,36.4270822 114.583333,36.2239592 114.5625,36.046875 C114.541667,35.8697908 114.510417,35.6770844 114.46875,35.46875 C114.385416,34.8645803 114.265626,34.3385439 114.109375,33.890625 C113.953124,33.4427061 113.734376,33.0677098 113.453125,32.765625 C113.171874,32.4635402 112.812502,32.2343758 112.375,32.078125 C111.937498,31.9218742 111.395837,31.84375 110.75,31.84375 C110.270831,31.84375 109.812502,31.9479156 109.375,32.15625 C108.937498,32.3645844 108.479169,32.46875 108,32.46875 C107.624998,32.46875 107.4375,32.4166672 107.4375,32.3125 Z M173,38 L151.375,38 C151.145832,38.0833338 151.010417,38.1718745 150.96875,38.265625 C150.927083,38.3593755 150.885417,38.5416653 150.84375,38.8125 C150.802083,39.0000009 150.765625,39.4062469 150.734375,40.03125 C150.703125,40.6562531 150.6875,41.3645794 150.6875,42.15625 C150.6875,42.9479206 150.781249,43.7083297 150.96875,44.4375 C151.156251,45.1666703 151.364582,45.8854131 151.59375,46.59375 C152.468754,49.1770962 153.838532,51.1458266 155.703125,52.5 C157.567718,53.8541734 160.020818,54.53125 163.0625,54.53125 C163.520836,54.53125 164.020831,54.4479175 164.5625,54.28125 C165.104169,54.1145825 165.645831,53.901043 166.1875,53.640625 C166.729169,53.380207 167.249998,53.0729184 167.75,52.71875 C168.250002,52.3645816 168.687498,52.0000019 169.0625,51.625 C169.333335,51.3749988 169.557291,51.0885433 169.734375,50.765625 C169.911459,50.4427067 170.135415,50.0416691 170.40625,49.5625 C170.489584,49.4791662 170.604166,49.4114586 170.75,49.359375 C170.895834,49.3072914 171.020833,49.28125 171.125,49.28125 C171.500002,49.28125 171.755208,49.4010405 171.890625,49.640625 C172.026042,49.8802095 172.09375,50.1770816 172.09375,50.53125 C172.09375,50.6354172 172.057292,50.7760408 171.984375,50.953125 C171.911458,51.1302092 171.828125,51.3124991 171.734375,51.5 C171.640625,51.6875009 171.536459,51.8697908 171.421875,52.046875 C171.307291,52.2239592 171.21875,52.3541662 171.15625,52.4375 C170.364579,53.6250059 169.364589,54.6718705 168.15625,55.578125 C166.947911,56.4843795 165.500008,57.2187472 163.8125,57.78125 C163.437498,57.8854172 162.79688,57.973958 161.890625,58.046875 C160.98437,58.119792 160.000005,58.15625 158.9375,58.15625 C157.999995,58.15625 157.036463,58.0312512 156.046875,57.78125 C155.057287,57.5312488 154.093755,57.1770856 153.15625,56.71875 C152.218745,56.2604144 151.348962,55.7291697 150.546875,55.125 C149.744788,54.5208303 149.083336,53.8541703 148.5625,53.125 C147.437494,51.5833256 146.609378,50.0208412 146.078125,48.4375 C145.546872,46.8541588 145.28125,45.0833431 145.28125,43.125 C145.28125,42.4166631 145.317708,41.7447948 145.390625,41.109375 C145.463542,40.4739552 145.588541,39.8541697 145.765625,39.25 C145.942709,38.6458303 146.166665,38.046878 146.4375,37.453125 C146.708335,36.859372 147.041665,36.2500031 147.4375,35.625 C148.125003,34.4791609 148.906246,33.4270881 149.78125,32.46875 C150.656254,31.5104119 151.624995,30.6875034 152.6875,30 C153.750005,29.3124966 154.895827,28.7812519 156.125,28.40625 C157.354173,28.0312481 158.677076,27.84375 160.09375,27.84375 C161.281256,27.84375 162.515619,27.9635405 163.796875,28.203125 C165.078131,28.4427095 166.312494,28.9687459 167.5,29.78125 C167.875002,30.0520847 168.39583,30.4687472 169.0625,31.03125 C169.72917,31.5937528 170.385413,32.2239548 171.03125,32.921875 C171.677087,33.6197952 172.239581,34.3541628 172.71875,35.125 C173.197919,35.8958372 173.4375,36.6354131 173.4375,37.34375 C173.4375,37.5312509 173.401042,37.6874994 173.328125,37.8125 C173.255208,37.9375006 173.145834,38 173,38 Z M152.1875,36.3125 L166.09375,36.3125 C166.447918,36.3125 166.661458,36.2656255 166.734375,36.171875 C166.807292,36.0781245 166.84375,35.9791672 166.84375,35.875 C166.84375,35.3958309 166.72396,34.8958359 166.484375,34.375 C166.24479,33.8541641 165.953127,33.3593773 165.609375,32.890625 C165.265623,32.4218727 164.916668,32.0000019 164.5625,31.625 C164.208332,31.2499981 163.906251,30.9583344 163.65625,30.75 C162.98958,30.1874972 162.32292,29.8229175 161.65625,29.65625 C160.98958,29.4895825 160.229171,29.40625 159.375,29.40625 C159.020832,29.40625 158.69271,29.4114583 158.390625,29.421875 C158.08854,29.4322917 157.791668,29.4583331 157.5,29.5 C157.208332,29.5416669 156.916668,29.6041662 156.625,29.6875 C156.333332,29.7708338 156.010418,29.8958325 155.65625,30.0625 C155.260415,30.2500009 154.828127,30.546873 154.359375,30.953125 C153.890623,31.359377 153.453127,31.8281223 153.046875,32.359375 C152.640623,32.8906277 152.296876,33.4687469 152.015625,34.09375 C151.734374,34.7187531 151.59375,35.3333303 151.59375,35.9375 C151.59375,36.1875012 151.791665,36.3125 152.1875,36.3125 Z M175.5625,57.71875 C175.5625,57.5312491 175.619791,57.3697923 175.734375,57.234375 C175.848959,57.0989577 175.984374,56.994792 176.140625,56.921875 C176.296876,56.848958 176.458332,56.7916669 176.625,56.75 C176.791668,56.7083331 176.927083,56.6875 177.03125,56.6875 L180.15625,56.6875 C180.656252,56.6875 180.90625,56.3645866 180.90625,55.71875 L180.90625,21.78125 C180.90625,20.781245 180.812501,20.0052111 180.625,19.453125 C180.437499,18.9010389 180.197918,18.4895847 179.90625,18.21875 C179.614582,17.9479153 179.28646,17.7864586 178.921875,17.734375 C178.55729,17.6822914 178.197918,17.65625 177.84375,17.65625 C177.552082,17.65625 177.291668,17.6770831 177.0625,17.71875 C176.833332,17.7604169 176.625001,17.8072914 176.4375,17.859375 C176.249999,17.9114586 176.062501,17.9583331 175.875,18 C175.687499,18.0416669 175.489584,18.0625 175.28125,18.0625 C175.093749,18.0625 174.921876,18.026042 174.765625,17.953125 C174.609374,17.880208 174.53125,17.7500009 174.53125,17.5625 C174.53125,17.2708319 174.677082,17.0520841 174.96875,16.90625 C175.302085,16.6770822 175.645832,16.4947923 176,16.359375 C176.354168,16.2239577 176.71354,16.1093755 177.078125,16.015625 C177.44271,15.9218745 177.812498,15.8333338 178.1875,15.75 C178.562502,15.6666662 178.927082,15.5625006 179.28125,15.4375 C180.197921,15.1249984 180.874998,14.8906258 181.3125,14.734375 C181.750002,14.5781242 182.08854,14.4427089 182.328125,14.328125 C182.56771,14.2135411 182.781249,14.1041672 182.96875,14 C183.156251,13.8958328 183.458331,13.7500009 183.875,13.5625 C184.416669,13.3541656 184.947914,13.25 185.46875,13.25 C185.552084,13.25 185.687499,13.2656248 185.875,13.296875 C186.062501,13.3281252 186.208333,13.4166659 186.3125,13.5625 C186.562501,13.8333347 186.6875,14.3749959 186.6875,15.1875 L186.6875,55.71875 C186.6875,56.1562522 186.812499,56.4218745 187.0625,56.515625 C187.312501,56.6093755 187.583332,56.65625 187.875,56.65625 C188.354169,56.65625 188.80729,56.619792 189.234375,56.546875 C189.66146,56.473958 190.114581,56.4375 190.59375,56.4375 C190.864585,56.4375 191.104166,56.5104159 191.3125,56.65625 C191.520834,56.8020841 191.625,57.0208319 191.625,57.3125 C191.625,57.5208344 191.572917,57.7239573 191.46875,57.921875 C191.364583,58.1197927 191.218751,58.21875 191.03125,58.21875 L190,58.21875 C189.229163,58.21875 188.515628,58.2031252 187.859375,58.171875 C187.203122,58.1406248 186.562503,58.1041669 185.9375,58.0625 C185.312497,58.0208331 184.69792,57.9843752 184.09375,57.953125 C183.48958,57.9218748 182.843753,57.90625 182.15625,57.90625 C181.343746,57.90625 180.578129,57.9583328 179.859375,58.0625 C179.140621,58.1666672 178.44792,58.21875 177.78125,58.21875 L176.09375,58.21875 C175.968749,58.21875 175.848959,58.1614589 175.734375,58.046875 C175.619791,57.9322911 175.5625,57.8229172 175.5625,57.71875 Z" id="afcapel" fill="#DE2792"></path>
        <path d="M194.8,57.128 C194.8,56.5039969 195.003998,55.9700022 195.412,55.526 C195.820002,55.0819978 196.359997,54.86 197.032,54.86 C197.704003,54.86 198.243998,55.0819978 198.652,55.526 C199.060002,55.9700022 199.264,56.5039969 199.264,57.128 C199.264,57.7520031 199.060002,58.2859978 198.652,58.73 C198.243998,59.1740022 197.704003,59.396 197.032,59.396 C196.359997,59.396 195.820002,59.1740022 195.412,58.73 C195.003998,58.2859978 194.8,57.7520031 194.8,57.128 Z M205.024,56.624 C203.535993,54.7519906 202.792,52.3580146 202.792,49.442 C202.792,46.5259854 203.583992,44.1140095 205.168,42.206 C206.752008,40.2979905 208.947986,39.344 211.756,39.344 C214.108012,39.344 216.26799,39.847995 218.236,40.856 L217.156,43.484 C215.523992,42.7399963 213.988007,42.368 212.548,42.368 C210.62799,42.368 209.206005,43.0039936 208.282,44.276 C207.357995,45.5480064 206.896,47.1439904 206.896,49.064 C206.896,53.9600245 208.791981,56.408 212.584,56.408 C214.000007,56.408 215.475992,56.0000041 217.012,55.184 L218.272,57.704 C216.423991,58.8560058 214.126014,59.432 211.378,59.432 C208.629986,59.432 206.512007,58.4960094 205.024,56.624 Z M230.332,39.344 C232.684012,39.344 234.627992,40.1659918 236.164,41.81 C237.700008,43.4540082 238.468,45.871984 238.468,49.064 C238.468,52.256016 237.682008,54.7819907 236.11,56.642 C234.537992,58.5020093 232.180016,59.432 229.036,59.432 C226.683988,59.432 224.740008,58.5980083 223.204,56.93 C221.667992,55.2619917 220.9,52.832016 220.9,49.64 C220.9,46.447984 221.685992,43.9340092 223.258,42.098 C224.830008,40.2619908 227.187984,39.344 230.332,39.344 Z M226.21,54.842 C227.014004,55.8860052 228.219992,56.408 229.828,56.408 C231.436008,56.408 232.593996,55.7840062 233.302,54.536 C234.010004,53.2879938 234.364,51.4580121 234.364,49.046 C234.364,46.6339879 233.962004,44.9180051 233.158,43.898 C232.353996,42.8779949 231.244007,42.368 229.828,42.368 C228.027991,42.368 226.774004,42.9799939 226.066,44.204 C225.357996,45.4280061 225.004,47.2459879 225.004,49.658 C225.004,52.0700121 225.405996,53.7979948 226.21,54.842 Z M243.796,45.896 C243.796,43.7359892 243.580002,41.7920086 243.148,40.064 L246.172,39.668 L246.856,41.468 C248.89601,40.0519929 250.989989,39.344 253.138,39.344 C255.286011,39.344 256.863995,40.039993 257.872,41.432 C259.81601,40.039993 261.897989,39.344 264.118,39.344 C266.338011,39.344 267.945995,39.9319941 268.942,41.108 C269.938005,42.2840059 270.436,44.0479882 270.436,46.4 L270.436,59 L266.548,59 L266.548,47.12 C266.548,44.7919884 265.996006,43.3400029 264.892,42.764 C264.411998,42.4999987 263.800004,42.368 263.056,42.368 C261.807994,42.368 260.416008,42.9079946 258.88,43.988 C259.024001,44.7320037 259.096,45.5359957 259.096,46.4 L259.096,59 L255.208,59 L255.208,47.12 C255.208,45.6319926 254.980002,44.4680042 254.524,43.628 C254.067998,42.7879958 253.144007,42.368 251.752,42.368 C250.359993,42.368 249.004007,42.8839948 247.684,43.916 L247.684,59 L243.796,59 L243.796,45.896 Z" id=".com" fill="#8B572A"></path>
    </g>
</svg>